/* XPM */
static char *player[] = {
/* columns rows colors chars-per-pixel */
"32 32 16 1 ",
"  c #BBC5DB",
". c #DFDBE3",
"X c #C7CCD5",
"o c #0B0A0E",
"O c #272029",
"+ c #674E51",
"@ c #553945",
"# c #9F6C69",
"$ c #A05054",
"% c #A87D8B",
"& c #B39297",
"* c None",
"= c #CB989E",
"- c #E2D3D8",
"; c #C9BDCB",
": c #7E7998",
/* pixels */
"                                ",
"           .X X&*;              ",
"         --@oO+&&O&;            ",
"       X*@&++OOOoO&&&           ",
"      ;;@OoOoooooooO;&:         ",
"     X:OOoooOOOOOooOo@@;        ",
"     ;OooO@+#&&%#++Oooo@@       ",
"    .+oo&*==***====+ooo@@       ",
"    @Oo#--;********#Ooo@@       ",
"    +oo*-**********&+ooOO       ",
"    OoO-----********#oooo.      ",
"    OoO----*********%Oooo       ",
"    OoO---*******==*&Oooo       ",
"    Oo@-&@@#=*=$@@+=*#ooo       ",
"     o*;+##@$=#$+#%$**Oo.       ",
"     o&*+OOO=*&#+:#&&;@#        ",
"     $-**&%&;**&%&****+=        ",
"      --****-**=&&=***=*        ",
"      **--=-*===#==***+*        ",
"      @*-=&#O$$$#=***;+X        ",
"       *-&&=&$%&&&***-*         ",
"       -*&%=&#%&&#**=*          ",
"       &*%$@@@+@+#===&          ",
"        =##=====##=&&*          ",
"        &#&&&#&=&&%%#;          ",
"        ##&&*=&&&&&#&*.         ",
"         &;&&&&%&%#%&--O        ",
"         *=%###%#$##&&-o;       ",
"         **+++@+####=&;oo:      ",
"        &**&+$$$####=-@ooo@     ",
"     XO@;-*&########--ooooooo@  ",
"   :OOoo;@-&&####%#O-;ooooooooo:"
};
