/* XPM */
static char *belgie[] = {
/* columns rows colors chars-per-pixel */
"128 128 17 1 ",
"  c black",
". c #010000",
"X c #000100",
"o c #EC0000",
"O c #EE0000",
"+ c #EC0002",
"@ c #EE0002",
"# c #FDDD00",
"$ c #FEDC00",
"% c #FFDD00",
"& c #FEDE00",
"* c #FFDE00",
"= c #FFDF00",
"- c #FFDE01",
"; c #FFDF01",
": c #FFE001",
"> c #FFE002",
/* pixels */
"                                           &&&&&&&&&&&&&&&&&&&&&&&&&&&&&&&&&&&&&&&&&&&++++++++++++++++++++++++++++++++++++++++++",
"                                           &&&&&&&&&&&&&&&&&&&&&&&&&&&&&&&&&&&&&&&&&&&++++++++++++++++++++++++++++++++++++++++++",
"                                           &&&&&&&&&&&&&&&&&&&&&&&&&&&&&&&&&&&&&&&&&&&++++++++++++++++++++++++++++++++++++++++++",
"                                           &&&&&&&&&&&&&&&&&&&&&&&&&&&&&&&&&&&&&&&&&&&++++++++++++++++++++++++++++++++++++++++++",
"                                           &&&&&&&&&&&&&&&&&&&&&&&&&&&&&&&&&&&&&&&&&&&++++++++++++++++++++++++++++++++++++++++++",
"                                           &&&&&&&&&&&&&&&&&&&&&&&&&&&&&&&&&&&&&&&&&&&++++++++++++++++++++++++++++++++++++++++++",
"                                           &&&&&&&&&&&&&&&&&&&&&&&&&&&&&&&&&&&&&&&&&&&++++++++++++++++++++++++++++++++++++++++++",
"                                           &&&&&&&&&&&&&&&&&&&&&&&&&&&&&&&&&&&&&&&&&&&++++++++++++++++++++++++++++++++++++++++++",
"                                           &&&&&&&&&&&&&&&&&&&&&&&&&&&&&&&&&&&&&&&&&&&++++++++++++++++++++++++++++++++++++++++++",
"                                           &&&&&&&&&&&&&&&&&&&&&&&&&&&&&&&&&&&&&&&&&&&++++++++++++++++++++++++++++++++++++++++++",
"                                           &&&&&&&&&&&&&&&&&&&&&&&&&&&&&&&&&&&&&&&&&&&++++++++++++++++++++++++++++++++++++++++++",
"                                           &&&&&&&&&&&&&&&&&&&&&&&&&&&&&&&&&&&&&&&&&&&++++++++++++++++++++++++++++++++++++++++++",
"                                           &&&&&&&&&&&&&&&&&&&&&&&&&&&&&&&&&&&&&&&&&&&++++++++++++++++++++++++++++++++++++++++++",
"                                           &&&&&&&&&&&&&&&&&&&&&&&&&&&&&&&&&&&&&&&&&&&++++++++++++++++++++++++++++++++++++++++++",
"                                           &&&&&&&&&&&&&&&&&&&&&&&&&&&&&&&&&&&&&&&&&&&++++++++++++++++++++++++++++++++++++++++++",
"                                           &&&&&&&&&&&&&&&&&&&&&&&&&&&&&&&&&&&&&&&&&&&++++++++++++++++++++++++++++++++++++++++++",
"                                           &&&&&&&&&&&&&&&&&&&&&&&&&&&&&&&&&&&&&&&&&&>++++++++++++++++++++++++++++++++++++++++++",
"                                           &&&&&&&&&&&&&&&&&&&&&&&&&&&&&&&&&&&&&&&&&&&++++++++++++++++++++++++++++++++++++++++++",
"                                           &&&&&&&&&&&&&&&&&&&&&&&&&&&&&&&&&&&&&&&&&&&++++++++++++++++++++++++++++++++++++++++++",
"                                           &&&&&&&&&&&&&&&&&&&&&&&&&&&&&&&&&&&&&&&&&&&++++++++++++++++++++++++++++++++++++++++++",
"                                           &&&&&&&&&&&&&&&&&&&&&&&&&&&&&&&&&&&&&&&&&&&++++++++++++++++++++++++++++++++++++++++++",
"                                           &&&&&&&&&&&&&&&&&&&&&&&&&&&&&&&&&&&&&&&&&&&++++++++++++++++++++++++++++++++++++++++++",
"                                           &&&&&&&&&&&&&&&&&&&&&&&&&&&&&&&&&&&&&&&&&&&++++++++++++++++++++++++++++++++++++++++++",
"                                           &&&&&&&&&&&&&&&&&&&&&&&&&&&&&&&&&&&&&&&&&&&++++++++++++++++++++++++++++++++++++++++++",
"                                           &&&&&&&&&&&&&&&&&&&&&&&&&&&&&&&&&&&&&&&&&&&++++++++++++++++++++++++++++++++++++++++++",
"                                           &&&&&&&&&&&&&&&&&&&&&&&&&&&&&&&&&&&&&&&&&&&++++++++++++++++++++++++++++++++++++++++++",
"                                           &&&&&&&&&&&&&&&&&&&&&&&&&&&&&&&&&&&&&&&&&&&++++++++++++++++++++++++++++++++++++++++++",
"                                           &&&&&&&&&&&&&&&&&&&&&&&&&&&&&&&&&&&&&&&&&&&++++++++++++++++++++++++++++++++++++++++++",
"                                           &&&&&&&&&&&&&&&&&&&&&&&&&&&&&&&&&&&&&&&&&&&++++++++++++++++++++++++++++++++++++++++++",
"                                           &&&&&&&&&&&&&&&&&&&&&&&&&&&&&&&&&&&&&&&&&&&++++++++++++++++++++++++++++++++++++++++++",
"                                           &&&&&&&&&&&&&&&&&&&&&&&&&&&&&&&&&&&&&&&&&&&++++++++++++++++++++++++++++++++++++++++++",
"                                           &&&&&&&&&&&&&&&&&&&&&&&&&&&&&&&&&&&&&&&&&&&++++++++++++++++++++++++++++++++++++++++++",
"                                           &&&&&&&&&&&&&&&&&&&&&&&&&&&&&&&&&&&&&&&&&&&++++++++++++++++++++++++++++++++++++++++++",
"                                           &&&&&&&&&&&&&&&&&&&&&&&&&&&&&&&&&&&&&&&&&&&++++++++++++++++++++++++++++++++++++++++++",
"                                           &&&&&&&&&&&&&&&&&&&&&&&&&&&&&&&&&&&&&&&&&&&++++++++++++++++++++++++++++++++++++++++++",
"                                           &&&&&&&&&&&&&&&&&&&&&&&&&&&&&&&&&&&&&&&&&&&++++++++++++++++++++++++++++++++++++++++++",
"                                           &&&&&&&&&&&&&&&&&&&&&&&&&&&&&&&&&&&&&&&&&&&++++++++++++++++++++++++++++++++++++++++++",
"                                           &&&&&&&&&&&&&&&&&&&&&&&&&&&&&&&&&&&&&&&&&&&++++++++++++++++++++++++++++++++++++++++++",
"                                           &&&&&&&&&&&&&&&&&&&&&&&&&&&&&&&&&&&&&&&&&&&++++++++++++++++++++++++++++++++++++++++++",
"                                           &&&&&&&&&&&&&&&&&&&&&&&&&&&&&&&&&&&&&&&&&&&++++++++++++++++++++++++++++++++++++++++++",
"                                           &&&&&&&&&&&&&&&&&&&&&&&&&&&&&&&&&&&&&&&&&>&++++++++++++++++++++++++++++++++++++++++++",
"                                           &&&&&&&&&&&&&&&&&&&&&&&&&&&&&&&&&&&&&&&&&&&++++++++++++++++++++++++++++++++++++++++++",
"                                           &&&&&&&&&&&&&&&&&&&&&&&&&&&&&&&&&&&&&&&&&&&++++++++++++++++++++++++++++++++++++++++++",
"                                           &&&&&&&&&&&&&&&&&&&&&&&&&&&&&&&&&&&&&&&&&&&++++++++++++++++++++++++++++++++++++++++++",
"                                           &&&&&&&&&&&&&&&&&&&&&&&&&&&&&&&&&&&&&&&&&&&++++++++++++++++++++++++++++++++++++++++++",
"                                           &&&&&&&&&&&&&&&&&&&&&&&&&&&&&&&&&&&&&&&&&&&++++++++++++++++++++++++++++++++++++++++++",
"                                           &&&&&&&&&&&&&&&&&&&&&&&&&&&&&&&&&&&&&&&&&&&++++++++++++++++++++++++++++++++++++++++++",
"                                           &&&&&&&&&&&&&&&&&&&&&&&&&&&&&&&&&&&&&&&&&&&++++++++++++++++++++++++++++++++++++++++++",
"                                           &&&&&&&&&&&&&&&&&&&&&&&&&&&&&&&&&&&&&&&&&&&++++++++++++++++++++++++++++++++++++++++++",
"                                           &&&&&&&&&&&&&&&&&&&&&&&&&&&&&&&&&&&&&&&&&&&++++++++++++++++++++++++++++++++++++++++++",
"                                           &&&&&&&&&&&&&&&&&&&&&&&&&&&&&&&&&&&&&&&&&&&++++++++++++++++++++++++++++++++++++++++++",
"                                           &&&&&&&&&&&&&&&&&&&&&&&&&&&&&&&&&&&&&&&&&&&++++++++++++++++++++++++++++++++++++++++++",
"                                           &&&&&&&&&&&&&&&&&&&&&&&&&&&&&&&&&&&&&&&&&&&++++++++++++++++++++++++++++++++++++++++++",
"                                           &&&&&&&&&&&&&&&&&&&&&&&&&&&&&&&&&&&&&&&&&&&++++++++++++++++++++++++++++++++++++++++++",
"                                           &&&&&&&&&&&&&&&&&&&&&&&&&&&&&&&&&&&&&&&&&&&++++++++++++++++++++++++++++++++++++++++++",
"                                           &&&&&&&&&&&&&&&&&&&&&&&&&&&&&&&&&&&&&&&&&&&++++++++++++++++++++++++++++++++++++++++++",
"                                           &&&&&&&&&&&&&&&&&&&&&&&&&&&&&&&&&&&&&&&&&&&++++++++++++++++++++++++++++++++++++++++++",
"                                           &&&&&&&&&&&&&&&&&&&&&&&&&&&&&&&&&&&&&&&&&&&++++++++++++++++++++++++++++++++++++++++++",
"                                           &&&&&&&&&&&&&&&&&&&&&&&&&&&&&&&&&&&&&&&&&&&++++++++++++++++++++++++++++++++++++++++++",
"                                           &&&&&&&&&&&&&&&&&&&&&&&&&&&&&&&&&&&&&&&&&&&++++++++++++++++++++++++++++++++++++++++++",
"                                           &&&&&&&&&&&&&&&&&&&&&&&&&&&&&&&&&&&&&&&&&&&++++++++++++++++++++++++++++++++++++++++++",
"                                           &&&&&&&&&&&&&&&&&&&&&&&&&&&&&&&&&&&&&&&&&&&++++++++++++++++++++++++++++++++++++++++++",
"                                           &&&&&&&&&&&&&&&&&&&&&&&&&&&&&&&&&&&&&&&&&&&++++++++++++++++++++++++++++++++++++++++++",
"                                           &&&&&&&&&&&&&&&&&&&&&&&&&&&&&&&&&&&&&&&&&&&++++++++++++++++++++++++++++++++++++++++++",
"                                           &&&&&&&&&&&&&&&&&&&&&&&&&&&&&&&&&&&&&&&&&&&++++++++++++++++++++++++++++++++++++++++++",
"                                           &&&&&&&&&&&&&&&&&&&&&&&&&&&&&&&&&&&&&&&&&&&++++++++++++++++++++++++++++++++++++++++++",
"                                           &&&&&&&&&&&&&&&&&&&&&&&&&&&&&&&&&&&&&&&&&&&++++++++++++++++++++++++++++++++++++++++++",
"                                           &&&&&&&&&&&&&&&&&&&&&&&&&&&&&>&&&&&&&&&&&&&++++++++++++++++++++++++++++++++++++++++++",
"                                           &&&&&&&&&&&&&&&&&&&&&&&&&&&&&&&&&&&&&&&&&&&++++++++++++++++++++++++++++++++++++++++++",
"                                           &&&&&&&&&&&&&&&&&&&&&&&&&&&&&&&&&&&&&&&&&&&++++++++++++++++++++++++++++++++++++++++++",
"                                           &&&&&&&&&&&&&&&&&&&&&&&&&&&&&&&&&&&&&&&&&&&++++++++++++++++++++++++++++++++++++++++++",
"                                           &&&&&&&&&&&&&&&&&&&&&&&&&&&&&&&&&&&&&&&&&&&++++++++++++++++++++++++++++++++++++++++++",
"                                           &&&&&&&&&&&&&&&&&&&&&&&&&&&&&&&&&&&&&&&&&&&++++++++++++++++++++++++++++++++++++++++++",
"                                           &&&&&&&&&&&&&&&&&&&&&&&&&&&&&&&&&&&&&&&&&&&++++++++++++++++++++++++++++++++++++++++++",
"                                           &&&&&&&&&&&&&&&&&&&&&&&&&&&&&&&&&&&&&&&&&&&++++++++++++++++++++++++++++++++++++++++++",
"                                           &&&&&&&&&&&&&&&&&&&&&&&&&&&&&&&&&&&&&&&&&&&++++++++++++++++++++++++++++++++++++++++++",
"                                           &&&&&&&&&&&&&&&&&&&&&&&&&&&&&&&&&&&&&&&&&&&++++++++++++++++++++++++++++++++++++++++++",
"                                           &&&&&&&&&&&&&&&&&&&&&&&&&&&&&&&&&&&&&&&&&&&++++++++++++++++++++++++++++++++++++++++++",
"                                           &&&&&&&&&&&&&&&&&&&&>&&&&&&&&&&&&&&&&&&&&&&++++++++++++++++++++++++++++++++++++++++++",
"                                           &&&&&&&&&&&&&&&&&&&&&&&&&&&&&&&&&&&&&&&&&&&++++++++++++++++++++++++++++++++++++++++++",
"                                           &&&&&&&&&&&&&&&&&&&&&&&&&&&&&&&&&&&&&&&&&&&++++++++++++++++++++++++++++++++++++++++++",
"                                           &&&&&&&&&&&&&&&&&&&&&&&&&&&&&&&&&&&&&&&&&&&++++++++++++++++++++++++++++++++++++++++++",
"                                           &&&&&&&&&&&&&&&&&&&&&&&&&&&&&&&&&&&&&&&&&&&++++++++++++++++++++++++++++++++++++++++++",
"                                           &&&&&&&&&&&&&&&&&&&&&&&&&&&&&&&&&&&&&&&&&&&++++++++++++++++++++++++++++++++++++++++++",
"                                           &&&&&&&&&&&&&&&&&&&&&&&&&&&&&&&&&&&&&&&&&&&++++++++++++++++++++++++++++++++++++++++++",
"                                           &&&&&&&&&&&&&&&&&&&&&&&&&&&&&&&&&&&&&&&&&&&++++++++++++++++++++++++++++++++++++++++++",
"                                           &&&&&&&&&&&&&&&&&&&&&&&>&&&&&&&&&&&&&&&&&&&++++++++++++++++++++++++++++++++++++++++++",
"                                           &&&&&&&&&&&&&&&&&&&&&&&&&&&&&&&&&&&&&&&&&&&++++++++++++++++++++++++++++++++++++++++++",
"                                           &&&&&&&&&&&&&&&&&&&&&&&&&&&&&&&&&&&&&&&&&&&++++++++++++++++++++++++++++++++++++++++++",
"                                           &&&&&&&&&&&&&&&&&&&&&&&&&&&&&&&&&&&&&&&&&&&++++++++++++++++++++++++++++++++++++++++++",
"                                           &&&&&&&&&&&&&&&&&&&&&&&&&&&&&&&&&&&&&&&&&&&++++++++++++++++++++++++++++++++++++++++++",
"                                           &&&&&&&&&&&&&&&&&&&&&&&&&&&&&&&&&&&&&&&&&&&++++++++++++++++++++++++++++++++++++++++++",
"                                           &&&&&&&&&&&&&&&&&&&&&&&&&&&&&&&&&&&&&&&&&&&++++++++++++++++++++++++++++++++++++++++++",
"                                           &&&&&&&&&&&&&&&&&&&&&&&&&&&&&&&&&&&&&&&&&&&++++++++++++++++++++++++++++++++++++++++++",
"                                           &&&&&&&&&&&&&&&&&&&&&&&&&&&&&&&&&&&&&&&&&&&++++++++++++++++++++++++++++++++++++++++++",
"                                           &&&&&&&&&&&&&&&&&&&&&&&&&&&&&&&&&&&&&&&&&&&++++++++++++++++++++++++++++++++++++++++++",
"                                           &&&&&&&&&&&&&&&&&&&&&&&&&&&&&&&&&&&&&&&&&&&++++++++++++++++++++++++++++++++++++++++++",
"                                           &&&&&&&&&&&&&&&&&&&&&&&&&&&&&&&&&&&&&&&&&&&++++++++++++++++++++++++++++++++++++++++++",
"                                           &&&&&&&&&&&&&&&&&&&&&&&&&&&&&&&&&&&&&&&&&&&++++++++++++++++++++++++++++++++++++++++++",
"                                           &&&&&&&&&&&&&&&&&&&&&&&&&&&&&&&&&&&&&&&&&&&++++++++++++++++++++++++++++++++++++++++++",
"                                           &&&&&&&&&&&&&&&&&&&&&&&&&&&&&&&&&&&&&&&&&&&++++++++++++++++++++++++++++++++++++++++++",
"                                           &&&&&&&&&&&&&&&&&&&&&&&&&&&&&&&&&&&&&&&&&&&++++++++++++++++++++++++++++++++++++++++++",
"                                           &&&&&&&&&&&&&&&&&&&&&&&>&&&&&&&&&&&&&&&&&&&++++++++++++++++++++++++++++++++++++++++++",
"                                           &&&&&&&&&&&&&&&&&&&&&&&&&&&&&&&&&&&&&&&&&&&++++++++++++++++++++++++++++++++++++++++++",
"                                           &&&&&&&&&&&&&&&&&&&&&&&&&&&&&&&&&&&&&&&&&&&++++++++++++++++++++++++++++++++++++++++++",
"                                           &&&&&&&&&&&&&&&&&&&&&&&&&&&&&&&&&&&&&&&&&&&++++++++++++++++++++++++++++++++++++++++++",
"                                           &&&&&&&&&&&&&&&&&&&&&&&&&&&&&&&&&&&&&&&&&&&++++++++++++++++++++++++++++++++++++++++++",
"                                           &&&&&&&&&&&&&&&&&&&&&&&&&&&&&&&&&&&&&&&&&&&++++++++++++++++++++++++++++++++++++++++++",
"                                           &&&&&&&&&&&&&&&&&&&&&&&&&&&&&&&&&&&&&&&&&&&++++++++++++++++++++++++++++++++++++++++++",
"                                           &&&&&&&&&&&&&&&&&&&&&&&&&&&&&&&&&&&&&&&&&&&++++++++++++++++++++++++++++++++++++++++++",
"                                           &&&&&&&&&&&&&&&&&&&&&&&&&&&&&&&&&&&&&&&&&&&++++++++++++++++++++++++++++++++++++++++++",
"                                           &&&&&&&&&&&&&&&&&&&&&&&&&&&&&&&&&&&&&&&&&&&++++++++++++++++++++++++++++++++++++++++++",
"                                           &&&&&&&&&&&&&&&&&&&&&&&&&&&&&&&&&&&&&&&&&&&++++++++++++++++++++++++++++++++++++++++++",
"                                           &&&&&&&&&&&&&&&&&&&&&&&&&&&&&&&&&&&&&&&&&&&++++++++++++++++++++++++++++++++++++++++++",
"                                           &&&&&&&&&&&&&&&&&&&&&&&&&&&&&&&&&&&&&&&&&&&++++++++++++++++++++++++++++++++++++++++++",
"                                           &&&&&&&&&&&&&&&&&&&&&&&&&&&&&&&&&&&&&&&&&&&++++++++++++++++++++++++++++++++++++++++++",
"                                           &&&&&&&&&&&&&&&&&&&&&&&&&&&&&&&&&&&&&&&&&&&++++++++++++++++++++++++++++++++++++++++++",
"                                           &&&&&&&&&&&&&&&&&&&&&&&&&&&&&&&&&&&&&&&&&&&++++++++++++++++++++++++++++++++++++++++++",
"                                           &&&&&&&&&&&&&&&&&&&&&&&&&&&&&&&&&&&&&&&&&&&++++++++++++++++++++++++++++++++++++++++++",
"                                           &&&&&&&&&&&&&&&&&&&&&&&&&&&&&&&&&&&&&&&&&&&++++++++++++++++++++++++++++++++++++++++++",
"                                           &&&&&&&&&&&&&&&&&&&&&&&&&&&&&&&&&&&&&&&&&&&++++++++++++++++++++++++++++++++++++++++++",
"                                           &&&&&&&&&&&&&&&&&&&&&&&&&&&&&&&&&&&&&&&&&&&++++++++++++++++++++++++++++++++++++++++++",
"                                           &&&&&&&&&&&&&&&&&&&&&&&&&&&&&&&&&&&&&&&&&&&++++++++++++++++++++++++++++++++++++++++++",
"                                           &&&&&&&&&&&&&&&&&&&&&&&&&&&&&&&&&&&&&&&&&&&++++++++++++++++++++++++++++++++++++++++++",
"                                           &&&&&&&&&&&&&&&&&&&&&&&&&&&&&&&&&&&&&&&&&&&++++++++++++++++++++++++++++++++++++++++++",
"                                           &&&&&&&&&&&&&&&&&&&&&&&&&&&&&&&&&&&&&&&&&>&++++++++++++++++++++++++++++++++++++++++++",
"                                           &&&&&&&&&&&&&&&&&&&&&&&&&&&&&&&&&&&&&&&&&&&++++++++++++++++++++++++++++++++++++++++++",
"                                           &&&&&&&&&&&&&&&&&&&&&&&&&&&&&&&&&&&&&&&&&&&++++++++++++++++++++++++++++++++++++++++++"
};
