/* XPM */
static char *belg[] = {
/* columns rows colors chars-per-pixel */
"32 32 9 1 ",
"  c black",
". c #060200",
"X c #120600",
"o c #D01500",
"O c #EE0000",
"+ c #FFDF01",
"@ c #F9DC1C",
"# c #FFC923",
"$ c #ECD94E",
/* pixels */
"         .X$@++++++++#oOOOOOOOOO",
"         .X$@++++++++#oOOOOOOOOO",
"         .X$@++++++++#oOOOOOOOOO",
"         .X$@++++++++#oOOOOOOOOO",
"         .X$@++++++++#oOOOOOOOOO",
"         .X$@++++++++#oOOOOOOOOO",
"         .X$@++++++++#oOOOOOOOOO",
"         .X$@++++++++#oOOOOOOOOO",
"         .X$@++++++++#oOOOOOOOOO",
"         .X$@++++++++#oOOOOOOOOO",
"         .X$@++++++++#oOOOOOOOOO",
"         .X$@++++++++#oOOOOOOOOO",
"         .X$@++++++++#oOOOOOOOOO",
"         .X$@++++++++#oOOOOOOOOO",
"         .X$@++++++++#oOOOOOOOOO",
"         .X$@++++++++#oOOOOOOOOO",
"         .X$@++++++++#oOOOOOOOOO",
"         .X$@++++++++#oOOOOOOOOO",
"         .X$@++++++++#oOOOOOOOOO",
"         .X$@++++++++#oOOOOOOOOO",
"         .X$@++++++++#oOOOOOOOOO",
"         .X$@++++++++#oOOOOOOOOO",
"         .X$@++++++++#oOOOOOOOOO",
"         .X$@++++++++#oOOOOOOOOO",
"         .X$@++++++++#oOOOOOOOOO",
"         .X$@++++++++#oOOOOOOOOO",
"         .X$@++++++++#oOOOOOOOOO",
"         .X$@++++++++#oOOOOOOOOO",
"         .X$@++++++++#oOOOOOOOOO",
"         .X$@++++++++#oOOOOOOOOO",
"         .X$@++++++++#oOOOOOOOOO",
"         .X$@++++++++#oOOOOOOOOO"
};
